<mxfile host="65bd71144e" scale="2" border="0" linkTarget="_top">
    <diagram name="Страница — 1" id="PtERw0xOoVtdUdhSGjrE">
        <mxGraphModel dx="1299" dy="2034" grid="1" gridSize="10" guides="1" tooltips="1" connect="1" arrows="1" fold="1" page="1" pageScale="1" pageWidth="827" pageHeight="1169" math="0" shadow="0">
            <root>
                <mxCell id="0"/>
                <mxCell id="1" parent="0"/>
                <mxCell id="186" style="edgeStyle=none;html=1;" parent="1" source="181" target="182" edge="1">
                    <mxGeometry relative="1" as="geometry"/>
                </mxCell>
                <mxCell id="181" value="Начало" style="rounded=1;whiteSpace=wrap;html=1;arcSize=50;" parent="1" vertex="1">
                    <mxGeometry x="10" y="-1160" width="200" height="30" as="geometry"/>
                </mxCell>
                <mxCell id="187" style="edgeStyle=none;html=1;" parent="1" source="182" target="183" edge="1">
                    <mxGeometry relative="1" as="geometry"/>
                </mxCell>
                <mxCell id="182" value="i = 1" style="rounded=0;whiteSpace=wrap;html=1;" parent="1" vertex="1">
                    <mxGeometry x="10" y="-1110" width="200" height="30" as="geometry"/>
                </mxCell>
                <mxCell id="188" style="edgeStyle=none;html=1;" parent="1" source="183" target="184" edge="1">
                    <mxGeometry relative="1" as="geometry"/>
                </mxCell>
                <mxCell id="183" value="Ввод матрицы&lt;br&gt;&lt;div&gt;&lt;font style=&quot;color: rgb(0, 0, 0);&quot;&gt;i &amp;gt; 5&lt;/font&gt;&lt;/div&gt;" style="shape=loopLimit;whiteSpace=wrap;html=1;" parent="1" vertex="1">
                    <mxGeometry x="10" y="-1060" width="200" height="40" as="geometry"/>
                </mxCell>
                <mxCell id="189" style="edgeStyle=none;html=1;" parent="1" source="184" target="185" edge="1">
                    <mxGeometry relative="1" as="geometry"/>
                </mxCell>
                <mxCell id="184" value="j = 1" style="rounded=0;whiteSpace=wrap;html=1;" parent="1" vertex="1">
                    <mxGeometry x="10" y="-1000" width="200" height="30" as="geometry"/>
                </mxCell>
                <mxCell id="193" style="edgeStyle=none;html=1;" parent="1" source="185" target="190" edge="1">
                    <mxGeometry relative="1" as="geometry"/>
                </mxCell>
                <mxCell id="185" value="Ввод ячейки&lt;br&gt;&lt;div&gt;&lt;font style=&quot;color: rgb(0, 0, 0);&quot;&gt;i &amp;gt; 7&lt;/font&gt;&lt;/div&gt;" style="shape=loopLimit;whiteSpace=wrap;html=1;" parent="1" vertex="1">
                    <mxGeometry x="10" y="-950" width="200" height="40" as="geometry"/>
                </mxCell>
                <mxCell id="203" style="edgeStyle=none;html=1;" parent="1" source="190" target="194" edge="1">
                    <mxGeometry relative="1" as="geometry"/>
                </mxCell>
                <mxCell id="190" value="Ввод matrix[i][j]" style="shape=parallelogram;perimeter=parallelogramPerimeter;whiteSpace=wrap;html=1;fixedSize=1;" parent="1" vertex="1">
                    <mxGeometry x="10" y="-890" width="200" height="30" as="geometry"/>
                </mxCell>
                <mxCell id="191" value="matrix - матрица&lt;div&gt;&lt;font style=&quot;color: rgb(0, 0, 0);&quot;&gt;инцедентности&lt;/font&gt;&lt;/div&gt;" style="strokeWidth=1;html=1;shape=mxgraph.flowchart.annotation_1;align=left;pointerEvents=1;" parent="1" vertex="1">
                    <mxGeometry x="240" y="-890" width="5" height="30" as="geometry"/>
                </mxCell>
                <mxCell id="192" value="" style="endArrow=none;html=1;rounded=0;entryX=0;entryY=0.5;entryDx=0;entryDy=0;entryPerimeter=0;dashed=1;" parent="1" target="191" edge="1">
                    <mxGeometry width="50" height="50" relative="1" as="geometry">
                        <mxPoint x="200" y="-875" as="sourcePoint"/>
                        <mxPoint x="290" y="-885" as="targetPoint"/>
                    </mxGeometry>
                </mxCell>
                <mxCell id="204" style="edgeStyle=none;html=1;" parent="1" source="194" target="196" edge="1">
                    <mxGeometry relative="1" as="geometry"/>
                </mxCell>
                <mxCell id="194" value="matrix[i][j] = -1 или&lt;div&gt;&lt;font style=&quot;color: rgb(0, 0, 0);&quot;&gt;matrix[i][j] = 2&lt;/font&gt;&lt;/div&gt;" style="rhombus;whiteSpace=wrap;html=1;" parent="1" vertex="1">
                    <mxGeometry x="10" y="-840" width="200" height="60" as="geometry"/>
                </mxCell>
                <mxCell id="195" style="edgeStyle=none;html=1;" parent="1" source="196" edge="1">
                    <mxGeometry relative="1" as="geometry">
                        <mxPoint x="110" y="-690" as="targetPoint"/>
                    </mxGeometry>
                </mxCell>
                <mxCell id="196" value="degrees[i] = degrees[i] + 1" style="rounded=0;whiteSpace=wrap;html=1;" parent="1" vertex="1">
                    <mxGeometry x="10" y="-760" width="200" height="30" as="geometry"/>
                </mxCell>
                <mxCell id="197" value="&lt;span style=&quot;color: rgb(0, 0, 0); text-align: center; text-wrap-mode: wrap;&quot;&gt;degrees&lt;/span&gt;&amp;nbsp;- массив&lt;div&gt;&lt;font style=&quot;color: rgb(0, 0, 0);&quot;&gt;полустепеней захода&lt;/font&gt;&lt;/div&gt;" style="strokeWidth=1;html=1;shape=mxgraph.flowchart.annotation_1;align=left;pointerEvents=1;" parent="1" vertex="1">
                    <mxGeometry x="240" y="-760" width="5" height="30" as="geometry"/>
                </mxCell>
                <mxCell id="198" value="" style="endArrow=none;html=1;rounded=0;entryX=0;entryY=0.5;entryDx=0;entryDy=0;entryPerimeter=0;dashed=1;" parent="1" target="197" edge="1">
                    <mxGeometry width="50" height="50" relative="1" as="geometry">
                        <mxPoint x="210" y="-745" as="sourcePoint"/>
                        <mxPoint x="290" y="-755" as="targetPoint"/>
                    </mxGeometry>
                </mxCell>
                <mxCell id="199" value="" style="endArrow=none;html=1;entryX=0;entryY=0.5;entryDx=0;entryDy=0;" parent="1" edge="1">
                    <mxGeometry width="50" height="50" relative="1" as="geometry">
                        <mxPoint x="110" y="-710" as="sourcePoint"/>
                        <mxPoint x="230" y="-710" as="targetPoint"/>
                    </mxGeometry>
                </mxCell>
                <mxCell id="200" value="" style="endArrow=none;html=1;" parent="1" edge="1">
                    <mxGeometry width="50" height="50" relative="1" as="geometry">
                        <mxPoint x="230" y="-710" as="sourcePoint"/>
                        <mxPoint x="230" y="-810" as="targetPoint"/>
                    </mxGeometry>
                </mxCell>
                <mxCell id="201" value="Да" style="text;html=1;align=center;verticalAlign=middle;resizable=0;points=[];autosize=1;strokeColor=none;fillColor=none;" parent="1" vertex="1">
                    <mxGeometry x="70" y="-790" width="40" height="30" as="geometry"/>
                </mxCell>
                <mxCell id="202" value="Нет" style="text;html=1;align=center;verticalAlign=middle;resizable=0;points=[];autosize=1;strokeColor=none;fillColor=none;" parent="1" vertex="1">
                    <mxGeometry x="200" y="-840" width="40" height="30" as="geometry"/>
                </mxCell>
                <mxCell id="205" value="" style="endArrow=none;html=1;exitX=1;exitY=0.5;exitDx=0;exitDy=0;" parent="1" source="194" edge="1">
                    <mxGeometry width="50" height="50" relative="1" as="geometry">
                        <mxPoint x="100" y="-760" as="sourcePoint"/>
                        <mxPoint x="230" y="-810" as="targetPoint"/>
                    </mxGeometry>
                </mxCell>
                <mxCell id="211" style="edgeStyle=none;html=1;" parent="1" source="206" target="207" edge="1">
                    <mxGeometry relative="1" as="geometry"/>
                </mxCell>
                <mxCell id="206" value="Вывод matrix[i][j]" style="shape=parallelogram;perimeter=parallelogramPerimeter;whiteSpace=wrap;html=1;fixedSize=1;" parent="1" vertex="1">
                    <mxGeometry x="10" y="-690" width="200" height="30" as="geometry"/>
                </mxCell>
                <mxCell id="212" style="edgeStyle=none;html=1;" parent="1" source="207" target="208" edge="1">
                    <mxGeometry relative="1" as="geometry"/>
                </mxCell>
                <mxCell id="207" value="j = j + 1" style="rounded=0;whiteSpace=wrap;html=1;" parent="1" vertex="1">
                    <mxGeometry x="10" y="-640" width="200" height="30" as="geometry"/>
                </mxCell>
                <mxCell id="213" style="edgeStyle=none;html=1;" parent="1" source="208" target="209" edge="1">
                    <mxGeometry relative="1" as="geometry"/>
                </mxCell>
                <mxCell id="208" value="&lt;span style=&quot;color: rgb(0, 0, 0);&quot;&gt;Ввод ячейки&lt;/span&gt;" style="shape=loopLimit;whiteSpace=wrap;html=1;direction=west;" parent="1" vertex="1">
                    <mxGeometry x="10" y="-590" width="200" height="40" as="geometry"/>
                </mxCell>
                <mxCell id="214" style="edgeStyle=none;html=1;" parent="1" source="209" target="210" edge="1">
                    <mxGeometry relative="1" as="geometry"/>
                </mxCell>
                <mxCell id="209" value="i = i + 1" style="rounded=0;whiteSpace=wrap;html=1;" parent="1" vertex="1">
                    <mxGeometry x="10" y="-530" width="200" height="30" as="geometry"/>
                </mxCell>
                <mxCell id="216" style="edgeStyle=none;html=1;" parent="1" source="210" target="215" edge="1">
                    <mxGeometry relative="1" as="geometry"/>
                </mxCell>
                <mxCell id="210" value="&lt;span style=&quot;color: rgb(0, 0, 0);&quot;&gt;Ввод матрицы&lt;/span&gt;" style="shape=loopLimit;whiteSpace=wrap;html=1;direction=west;" parent="1" vertex="1">
                    <mxGeometry x="10" y="-480" width="200" height="40" as="geometry"/>
                </mxCell>
                <mxCell id="215" value="A" style="ellipse;whiteSpace=wrap;html=1;aspect=fixed;" parent="1" vertex="1">
                    <mxGeometry x="90" y="-420" width="40" height="40" as="geometry"/>
                </mxCell>
                <mxCell id="218" style="edgeStyle=none;html=1;" parent="1" source="219" target="221" edge="1">
                    <mxGeometry relative="1" as="geometry"/>
                </mxCell>
                <mxCell id="219" value="max = degrees[1]&lt;div&gt;&lt;font style=&quot;color: rgb(0, 0, 0);&quot;&gt;i = 2&lt;/font&gt;&lt;/div&gt;" style="rounded=0;whiteSpace=wrap;html=1;" parent="1" vertex="1">
                    <mxGeometry x="370" y="-1100" width="200" height="40" as="geometry"/>
                </mxCell>
                <mxCell id="220" style="edgeStyle=none;html=1;" parent="1" source="221" target="223" edge="1">
                    <mxGeometry relative="1" as="geometry"/>
                </mxCell>
                <mxCell id="221" value="Поиск максимального&lt;br&gt;&lt;div&gt;&lt;font style=&quot;color: rgb(0, 0, 0);&quot;&gt;i &amp;gt; 5&lt;/font&gt;&lt;/div&gt;" style="shape=loopLimit;whiteSpace=wrap;html=1;" parent="1" vertex="1">
                    <mxGeometry x="370" y="-1040" width="200" height="40" as="geometry"/>
                </mxCell>
                <mxCell id="222" style="edgeStyle=none;html=1;" parent="1" source="223" target="225" edge="1">
                    <mxGeometry relative="1" as="geometry"/>
                </mxCell>
                <mxCell id="223" value="degrees[i] &amp;gt; max" style="rhombus;whiteSpace=wrap;html=1;" parent="1" vertex="1">
                    <mxGeometry x="370" y="-980" width="200" height="60" as="geometry"/>
                </mxCell>
                <mxCell id="224" style="edgeStyle=none;html=1;" parent="1" source="225" target="229" edge="1">
                    <mxGeometry relative="1" as="geometry"/>
                </mxCell>
                <mxCell id="225" value="max = degrees[i]" style="rounded=0;whiteSpace=wrap;html=1;" parent="1" vertex="1">
                    <mxGeometry x="370" y="-900" width="200" height="30" as="geometry"/>
                </mxCell>
                <mxCell id="226" value="" style="endArrow=none;html=1;exitX=1;exitY=0.5;exitDx=0;exitDy=0;" parent="1" edge="1">
                    <mxGeometry width="50" height="50" relative="1" as="geometry">
                        <mxPoint x="470" y="-850" as="sourcePoint"/>
                        <mxPoint x="590" y="-850" as="targetPoint"/>
                    </mxGeometry>
                </mxCell>
                <mxCell id="227" value="" style="endArrow=none;html=1;" parent="1" edge="1">
                    <mxGeometry width="50" height="50" relative="1" as="geometry">
                        <mxPoint x="590" y="-950" as="sourcePoint"/>
                        <mxPoint x="590" y="-850" as="targetPoint"/>
                    </mxGeometry>
                </mxCell>
                <mxCell id="228" style="edgeStyle=none;html=1;" parent="1" source="229" target="234" edge="1">
                    <mxGeometry relative="1" as="geometry"/>
                </mxCell>
                <mxCell id="229" value="i = i + 1" style="rounded=0;whiteSpace=wrap;html=1;" parent="1" vertex="1">
                    <mxGeometry x="370" y="-830" width="200" height="30" as="geometry"/>
                </mxCell>
                <mxCell id="230" value="Нет" style="text;html=1;align=center;verticalAlign=middle;resizable=0;points=[];autosize=1;strokeColor=none;fillColor=none;" parent="1" vertex="1">
                    <mxGeometry x="560" y="-980" width="40" height="30" as="geometry"/>
                </mxCell>
                <mxCell id="231" value="" style="endArrow=none;html=1;exitX=1;exitY=0.5;exitDx=0;exitDy=0;" parent="1" edge="1">
                    <mxGeometry width="50" height="50" relative="1" as="geometry">
                        <mxPoint x="570" y="-950" as="sourcePoint"/>
                        <mxPoint x="590" y="-950" as="targetPoint"/>
                    </mxGeometry>
                </mxCell>
                <mxCell id="232" value="Да" style="text;html=1;align=center;verticalAlign=middle;resizable=0;points=[];autosize=1;strokeColor=none;fillColor=none;" parent="1" vertex="1">
                    <mxGeometry x="430" y="-930" width="40" height="30" as="geometry"/>
                </mxCell>
                <mxCell id="233" style="edgeStyle=none;html=1;" parent="1" source="234" target="236" edge="1">
                    <mxGeometry relative="1" as="geometry"/>
                </mxCell>
                <mxCell id="234" value="&lt;span style=&quot;color: rgb(0, 0, 0);&quot;&gt;Поиск максимального&lt;/span&gt;" style="shape=loopLimit;whiteSpace=wrap;html=1;direction=west;" parent="1" vertex="1">
                    <mxGeometry x="370" y="-780" width="200" height="40" as="geometry"/>
                </mxCell>
                <mxCell id="235" style="edgeStyle=none;html=1;" parent="1" source="236" target="238" edge="1">
                    <mxGeometry relative="1" as="geometry"/>
                </mxCell>
                <mxCell id="236" value="i = 1, j = 1" style="rounded=0;whiteSpace=wrap;html=1;" parent="1" vertex="1">
                    <mxGeometry x="370" y="-720" width="200" height="30" as="geometry"/>
                </mxCell>
                <mxCell id="237" style="edgeStyle=none;html=1;" parent="1" source="238" target="240" edge="1">
                    <mxGeometry relative="1" as="geometry"/>
                </mxCell>
                <mxCell id="238" value="Поиск полустепеней&lt;br&gt;&lt;div&gt;&lt;font style=&quot;color: rgb(0, 0, 0);&quot;&gt;i &amp;gt; 5&lt;/font&gt;&lt;/div&gt;" style="shape=loopLimit;whiteSpace=wrap;html=1;" parent="1" vertex="1">
                    <mxGeometry x="370" y="-670" width="200" height="40" as="geometry"/>
                </mxCell>
                <mxCell id="239" style="edgeStyle=none;html=1;" parent="1" source="240" target="244" edge="1">
                    <mxGeometry relative="1" as="geometry"/>
                </mxCell>
                <mxCell id="240" value="degrees[i] = max" style="rhombus;whiteSpace=wrap;html=1;" parent="1" vertex="1">
                    <mxGeometry x="370" y="-610" width="200" height="60" as="geometry"/>
                </mxCell>
                <mxCell id="241" value="max - максимальная&lt;div&gt;&lt;font style=&quot;color: rgb(0, 0, 0);&quot;&gt;полустепень захода&lt;/font&gt;&lt;/div&gt;" style="strokeWidth=1;html=1;shape=mxgraph.flowchart.annotation_1;align=left;pointerEvents=1;" parent="1" vertex="1">
                    <mxGeometry x="600" y="-900" width="5" height="30" as="geometry"/>
                </mxCell>
                <mxCell id="242" value="" style="endArrow=none;html=1;rounded=0;entryX=0;entryY=0.5;entryDx=0;entryDy=0;entryPerimeter=0;dashed=1;" parent="1" target="241" edge="1">
                    <mxGeometry width="50" height="50" relative="1" as="geometry">
                        <mxPoint x="570" y="-885" as="sourcePoint"/>
                        <mxPoint x="660" y="-895" as="targetPoint"/>
                    </mxGeometry>
                </mxCell>
                <mxCell id="243" style="edgeStyle=none;html=1;" parent="1" source="244" target="246" edge="1">
                    <mxGeometry relative="1" as="geometry"/>
                </mxCell>
                <mxCell id="244" value="vertextes[j] = i" style="rounded=0;whiteSpace=wrap;html=1;" parent="1" vertex="1">
                    <mxGeometry x="370" y="-530" width="200" height="30" as="geometry"/>
                </mxCell>
                <mxCell id="245" style="edgeStyle=none;html=1;" parent="1" source="246" target="249" edge="1">
                    <mxGeometry relative="1" as="geometry"/>
                </mxCell>
                <mxCell id="246" value="j = j + 1" style="rounded=0;whiteSpace=wrap;html=1;" parent="1" vertex="1">
                    <mxGeometry x="370" y="-480" width="200" height="30" as="geometry"/>
                </mxCell>
                <mxCell id="247" value="Да" style="text;html=1;align=center;verticalAlign=middle;resizable=0;points=[];autosize=1;strokeColor=none;fillColor=none;" parent="1" vertex="1">
                    <mxGeometry x="430" y="-560" width="40" height="30" as="geometry"/>
                </mxCell>
                <mxCell id="248" style="edgeStyle=none;html=1;" parent="1" source="249" target="254" edge="1">
                    <mxGeometry relative="1" as="geometry"/>
                </mxCell>
                <mxCell id="249" value="i = i + 1" style="rounded=0;whiteSpace=wrap;html=1;" parent="1" vertex="1">
                    <mxGeometry x="370" y="-410" width="200" height="30" as="geometry"/>
                </mxCell>
                <mxCell id="250" value="" style="endArrow=none;html=1;entryX=1;entryY=0.5;entryDx=0;entryDy=0;" parent="1" target="240" edge="1">
                    <mxGeometry width="50" height="50" relative="1" as="geometry">
                        <mxPoint x="590" y="-580" as="sourcePoint"/>
                        <mxPoint x="550" y="-580" as="targetPoint"/>
                    </mxGeometry>
                </mxCell>
                <mxCell id="251" value="" style="endArrow=none;html=1;" parent="1" edge="1">
                    <mxGeometry width="50" height="50" relative="1" as="geometry">
                        <mxPoint x="470" y="-430" as="sourcePoint"/>
                        <mxPoint x="590" y="-430" as="targetPoint"/>
                    </mxGeometry>
                </mxCell>
                <mxCell id="252" value="" style="endArrow=none;html=1;" parent="1" edge="1">
                    <mxGeometry width="50" height="50" relative="1" as="geometry">
                        <mxPoint x="590" y="-430" as="sourcePoint"/>
                        <mxPoint x="590" y="-580" as="targetPoint"/>
                    </mxGeometry>
                </mxCell>
                <mxCell id="253" style="edgeStyle=none;html=1;" parent="1" source="254" target="258" edge="1">
                    <mxGeometry relative="1" as="geometry"/>
                </mxCell>
                <mxCell id="254" value="&lt;span style=&quot;color: rgb(0, 0, 0);&quot;&gt;Поиск полустепеней&lt;/span&gt;" style="shape=loopLimit;whiteSpace=wrap;html=1;direction=west;" parent="1" vertex="1">
                    <mxGeometry x="370" y="-360" width="200" height="40" as="geometry"/>
                </mxCell>
                <mxCell id="255" value="Нет" style="text;html=1;align=center;verticalAlign=middle;resizable=0;points=[];autosize=1;strokeColor=none;fillColor=none;" parent="1" vertex="1">
                    <mxGeometry x="560" y="-610" width="40" height="30" as="geometry"/>
                </mxCell>
                <mxCell id="256" style="edgeStyle=none;html=1;" parent="1" source="257" target="219" edge="1">
                    <mxGeometry relative="1" as="geometry"/>
                </mxCell>
                <mxCell id="257" value="A" style="ellipse;whiteSpace=wrap;html=1;aspect=fixed;" parent="1" vertex="1">
                    <mxGeometry x="450" y="-1160" width="40" height="40" as="geometry"/>
                </mxCell>
                <mxCell id="258" value="Б" style="ellipse;whiteSpace=wrap;html=1;aspect=fixed;" parent="1" vertex="1">
                    <mxGeometry x="450" y="-300" width="40" height="40" as="geometry"/>
                </mxCell>
                <mxCell id="296" style="edgeStyle=none;html=1;" parent="1" source="290" target="293" edge="1">
                    <mxGeometry relative="1" as="geometry"/>
                </mxCell>
                <mxCell id="290" value="i = 1" style="rounded=0;whiteSpace=wrap;html=1;" parent="1" vertex="1">
                    <mxGeometry x="730" y="-1100" width="200" height="30" as="geometry"/>
                </mxCell>
                <mxCell id="291" style="edgeStyle=none;html=1;" parent="1" source="292" target="290" edge="1">
                    <mxGeometry relative="1" as="geometry"/>
                </mxCell>
                <mxCell id="292" value="Б" style="ellipse;whiteSpace=wrap;html=1;aspect=fixed;" parent="1" vertex="1">
                    <mxGeometry x="810" y="-1160" width="40" height="40" as="geometry"/>
                </mxCell>
                <mxCell id="297" style="edgeStyle=none;html=1;entryX=0.5;entryY=1;entryDx=0;entryDy=0;" parent="1" source="293" target="294" edge="1">
                    <mxGeometry relative="1" as="geometry"/>
                </mxCell>
                <mxCell id="293" value="Вывод полустепеней&lt;br&gt;&lt;div&gt;&lt;font style=&quot;color: rgb(0, 0, 0);&quot;&gt;i &amp;gt; длина vertexes&lt;/font&gt;&lt;/div&gt;" style="shape=loopLimit;whiteSpace=wrap;html=1;" parent="1" vertex="1">
                    <mxGeometry x="730" y="-1050" width="200" height="40" as="geometry"/>
                </mxCell>
                <mxCell id="298" style="edgeStyle=none;html=1;" parent="1" source="294" target="295" edge="1">
                    <mxGeometry relative="1" as="geometry"/>
                </mxCell>
                <mxCell id="294" value="Вывод vertexes[i]" style="shape=parallelogram;perimeter=parallelogramPerimeter;whiteSpace=wrap;html=1;fixedSize=1;" parent="1" vertex="1">
                    <mxGeometry x="730" y="-990" width="200" height="30" as="geometry"/>
                </mxCell>
                <mxCell id="300" style="edgeStyle=none;html=1;" parent="1" source="295" target="299" edge="1">
                    <mxGeometry relative="1" as="geometry"/>
                </mxCell>
                <mxCell id="295" value="j = 1" style="rounded=0;whiteSpace=wrap;html=1;" parent="1" vertex="1">
                    <mxGeometry x="730" y="-940" width="200" height="30" as="geometry"/>
                </mxCell>
                <mxCell id="302" style="edgeStyle=none;html=1;" parent="1" source="299" target="301" edge="1">
                    <mxGeometry relative="1" as="geometry"/>
                </mxCell>
                <mxCell id="299" value="Вывод дуг&lt;br&gt;&lt;div&gt;&lt;font style=&quot;color: rgb(0, 0, 0);&quot;&gt;j &amp;gt; 7&lt;/font&gt;&lt;/div&gt;" style="shape=loopLimit;whiteSpace=wrap;html=1;" parent="1" vertex="1">
                    <mxGeometry x="730" y="-890" width="200" height="40" as="geometry"/>
                </mxCell>
                <mxCell id="304" style="edgeStyle=none;html=1;" parent="1" source="301" target="303" edge="1">
                    <mxGeometry relative="1" as="geometry"/>
                </mxCell>
                <mxCell id="301" value="matrix[vertexes[i]][j] = -1 или&lt;div&gt;&lt;span style=&quot;color: rgb(0, 0, 0);&quot;&gt;matrix[vertexes[i]][j] = 2&lt;/span&gt;&lt;/div&gt;" style="rhombus;whiteSpace=wrap;html=1;" parent="1" vertex="1">
                    <mxGeometry x="730" y="-830" width="200" height="80" as="geometry"/>
                </mxCell>
                <mxCell id="309" style="edgeStyle=none;html=1;" parent="1" source="303" target="308" edge="1">
                    <mxGeometry relative="1" as="geometry"/>
                </mxCell>
                <mxCell id="303" value="Вывод j" style="shape=parallelogram;perimeter=parallelogramPerimeter;whiteSpace=wrap;html=1;fixedSize=1;" parent="1" vertex="1">
                    <mxGeometry x="730" y="-730" width="200" height="30" as="geometry"/>
                </mxCell>
                <mxCell id="305" value="Да" style="text;html=1;align=center;verticalAlign=middle;resizable=0;points=[];autosize=1;strokeColor=none;fillColor=none;" parent="1" vertex="1">
                    <mxGeometry x="790" y="-760" width="40" height="30" as="geometry"/>
                </mxCell>
                <mxCell id="311" style="edgeStyle=none;html=1;" parent="1" source="308" target="310" edge="1">
                    <mxGeometry relative="1" as="geometry"/>
                </mxCell>
                <mxCell id="308" value="j = j + 1" style="rounded=0;whiteSpace=wrap;html=1;" parent="1" vertex="1">
                    <mxGeometry x="730" y="-660" width="200" height="30" as="geometry"/>
                </mxCell>
                <mxCell id="319" style="edgeStyle=none;html=1;" parent="1" source="310" target="316" edge="1">
                    <mxGeometry relative="1" as="geometry"/>
                </mxCell>
                <mxCell id="310" value="&lt;span style=&quot;color: rgb(0, 0, 0);&quot;&gt;Вывод дуг&lt;/span&gt;" style="shape=loopLimit;whiteSpace=wrap;html=1;direction=west;" parent="1" vertex="1">
                    <mxGeometry x="730" y="-610" width="200" height="40" as="geometry"/>
                </mxCell>
                <mxCell id="312" value="" style="endArrow=none;html=1;exitX=1;exitY=0.5;exitDx=0;exitDy=0;" parent="1" source="301" edge="1">
                    <mxGeometry width="50" height="50" relative="1" as="geometry">
                        <mxPoint x="1010" y="-720" as="sourcePoint"/>
                        <mxPoint x="950" y="-790" as="targetPoint"/>
                    </mxGeometry>
                </mxCell>
                <mxCell id="313" value="" style="endArrow=none;html=1;" parent="1" edge="1">
                    <mxGeometry width="50" height="50" relative="1" as="geometry">
                        <mxPoint x="830" y="-680" as="sourcePoint"/>
                        <mxPoint x="950" y="-680" as="targetPoint"/>
                    </mxGeometry>
                </mxCell>
                <mxCell id="314" value="" style="endArrow=none;html=1;" parent="1" edge="1">
                    <mxGeometry width="50" height="50" relative="1" as="geometry">
                        <mxPoint x="950" y="-680" as="sourcePoint"/>
                        <mxPoint x="950" y="-790" as="targetPoint"/>
                    </mxGeometry>
                </mxCell>
                <mxCell id="315" value="Нет" style="text;html=1;align=center;verticalAlign=middle;resizable=0;points=[];autosize=1;strokeColor=none;fillColor=none;" parent="1" vertex="1">
                    <mxGeometry x="920" y="-820" width="40" height="30" as="geometry"/>
                </mxCell>
                <mxCell id="320" style="edgeStyle=none;html=1;" parent="1" source="316" target="317" edge="1">
                    <mxGeometry relative="1" as="geometry"/>
                </mxCell>
                <mxCell id="316" value="i = i + 1" style="rounded=0;whiteSpace=wrap;html=1;" parent="1" vertex="1">
                    <mxGeometry x="730" y="-550" width="200" height="30" as="geometry"/>
                </mxCell>
                <mxCell id="321" style="edgeStyle=none;html=1;" parent="1" source="317" target="318" edge="1">
                    <mxGeometry relative="1" as="geometry"/>
                </mxCell>
                <mxCell id="317" value="&lt;span style=&quot;color: rgb(0, 0, 0);&quot;&gt;Вывод полустепеней&lt;/span&gt;" style="shape=loopLimit;whiteSpace=wrap;html=1;direction=west;" parent="1" vertex="1">
                    <mxGeometry x="730" y="-500" width="200" height="40" as="geometry"/>
                </mxCell>
                <mxCell id="318" value="Конец" style="rounded=1;whiteSpace=wrap;html=1;arcSize=50;" parent="1" vertex="1">
                    <mxGeometry x="730" y="-440" width="200" height="30" as="geometry"/>
                </mxCell>
                <mxCell id="0HyRafl_PzmB0N9VSEkE-321" value="1" style="edgeStyle=none;html=1;" parent="1" source="0HyRafl_PzmB0N9VSEkE-323" target="0HyRafl_PzmB0N9VSEkE-326" edge="1">
                    <mxGeometry relative="1" as="geometry"/>
                </mxCell>
                <mxCell id="0HyRafl_PzmB0N9VSEkE-322" value="3" style="edgeStyle=none;html=1;" parent="1" source="0HyRafl_PzmB0N9VSEkE-323" target="0HyRafl_PzmB0N9VSEkE-324" edge="1">
                    <mxGeometry relative="1" as="geometry"/>
                </mxCell>
                <mxCell id="0HyRafl_PzmB0N9VSEkE-323" value="1" style="ellipse;whiteSpace=wrap;html=1;aspect=fixed;" parent="1" vertex="1">
                    <mxGeometry x="1001" y="-1100" width="40" height="40" as="geometry"/>
                </mxCell>
                <mxCell id="0HyRafl_PzmB0N9VSEkE-324" value="4" style="ellipse;whiteSpace=wrap;html=1;aspect=fixed;" parent="1" vertex="1">
                    <mxGeometry x="1121" y="-1100" width="40" height="40" as="geometry"/>
                </mxCell>
                <mxCell id="0HyRafl_PzmB0N9VSEkE-325" value="2" style="edgeStyle=none;html=1;" parent="1" source="0HyRafl_PzmB0N9VSEkE-326" target="0HyRafl_PzmB0N9VSEkE-324" edge="1">
                    <mxGeometry relative="1" as="geometry"/>
                </mxCell>
                <mxCell id="0HyRafl_PzmB0N9VSEkE-326" value="2" style="ellipse;whiteSpace=wrap;html=1;aspect=fixed;" parent="1" vertex="1">
                    <mxGeometry x="1061" y="-1160" width="40" height="40" as="geometry"/>
                </mxCell>
                <mxCell id="0HyRafl_PzmB0N9VSEkE-327" value="4" style="edgeStyle=none;html=1;" parent="1" source="0HyRafl_PzmB0N9VSEkE-329" target="0HyRafl_PzmB0N9VSEkE-324" edge="1">
                    <mxGeometry relative="1" as="geometry"/>
                </mxCell>
                <mxCell id="0HyRafl_PzmB0N9VSEkE-328" value="6" style="edgeStyle=none;html=1;" parent="1" source="0HyRafl_PzmB0N9VSEkE-329" target="0HyRafl_PzmB0N9VSEkE-331" edge="1">
                    <mxGeometry relative="1" as="geometry"/>
                </mxCell>
                <mxCell id="0HyRafl_PzmB0N9VSEkE-329" value="3" style="ellipse;whiteSpace=wrap;html=1;aspect=fixed;" parent="1" vertex="1">
                    <mxGeometry x="1061" y="-1040" width="40" height="40" as="geometry"/>
                </mxCell>
                <mxCell id="0HyRafl_PzmB0N9VSEkE-330" value="5" style="edgeStyle=none;html=1;startArrow=classic;startFill=1;endArrow=none;endFill=0;" parent="1" source="0HyRafl_PzmB0N9VSEkE-331" target="0HyRafl_PzmB0N9VSEkE-324" edge="1">
                    <mxGeometry relative="1" as="geometry"/>
                </mxCell>
                <mxCell id="0HyRafl_PzmB0N9VSEkE-331" value="5" style="ellipse;whiteSpace=wrap;html=1;aspect=fixed;" parent="1" vertex="1">
                    <mxGeometry x="1181" y="-1040" width="40" height="40" as="geometry"/>
                </mxCell>
                <mxCell id="0HyRafl_PzmB0N9VSEkE-332" value="7" style="edgeStyle=none;html=1;" parent="1" source="0HyRafl_PzmB0N9VSEkE-331" target="0HyRafl_PzmB0N9VSEkE-331" edge="1">
                    <mxGeometry relative="1" as="geometry"/>
                </mxCell>
            </root>
        </mxGraphModel>
    </diagram>
</mxfile>